<svg xmlns="http://www.w3.org/2000/svg" xmlns:xlink="http://www.w3.org/1999/xlink" width="500" zoomAndPan="magnify" viewBox="0 0 375 149.999998" height="200" preserveAspectRatio="xMidYMid meet" version="1.0"><defs><g/></defs><g fill="#ffffff" fill-opacity="1"><g transform="translate(0.000003125, 106.777168)"><g><path d="M 8.265625 -0.078125 L 8.265625 -58.171875 L 11.515625 -58.171875 L 52.078125 -18.6875 L 52.078125 -58.171875 L 55.15625 -58.171875 L 55.15625 -0.078125 Z M 8.265625 -0.078125 "/></g></g></g><g fill="#ffffff" fill-opacity="1"><g transform="translate(61.745223, 106.777168)"><g><path d="M 10.015625 -58.078125 L 52.328125 -58.078125 L 52.328125 -43.390625 L 25.203125 -43.390625 L 25.203125 -36.046875 L 47.734375 -36.046875 L 47.734375 -22.109375 L 25.203125 -22.109375 L 25.203125 -14.6875 L 52.328125 -14.6875 L 52.328125 0 L 10.015625 0 Z M 10.015625 -58.078125 "/></g></g></g><g fill="#ffffff" fill-opacity="1"><g transform="translate(123.490443, 106.777168)"><g><path d="M 29.375 0 L 29.375 -43.390625 L 7.421875 -43.390625 L 7.421875 -58.078125 L 54.328125 -58.078125 L 54.328125 -43.390625 L 32.375 -43.390625 L 32.375 0 Z M 29.375 0 "/></g></g></g><g fill="#ffffff" fill-opacity="1"><g transform="translate(185.237674, 106.777168)"><g/></g></g><g fill="#8928c1" fill-opacity="1"><g transform="translate(185.960911, 106.777168)"><g><path d="M 56.25 -14.765625 L 56.25 0 L 12.015625 0 L 12.015625 -58.078125 L 15.109375 -58.078125 L 15.109375 -14.765625 Z M 56.25 -14.765625 "/></g></g></g><g fill="#8928c1" fill-opacity="1"><g transform="translate(247.706131, 106.777168)"><g><path d="M 58.25 0 L 3.5 0 L 30.875 -59.328125 Z M 8.34375 -3.09375 L 53.40625 -3.09375 L 30.875 -51.984375 Z M 8.34375 -3.09375 "/></g></g></g><g fill="#8928c1" fill-opacity="1"><g transform="translate(309.451351, 106.777168)"><g><path d="M 34.96875 -58.078125 C 38.632812 -58.078125 41.554688 -57.523438 43.734375 -56.421875 C 46.347656 -55.078125 48.363281 -53.238281 49.78125 -50.90625 C 51.195312 -48.570312 51.90625 -45.957031 51.90625 -43.0625 C 51.90625 -40.332031 51.179688 -37.8125 49.734375 -35.5 C 48.285156 -33.195312 46.3125 -31.378906 43.8125 -30.046875 C 46.8125 -28.984375 49.34375 -27.144531 51.40625 -24.53125 C 53.46875 -21.914062 54.5 -18.96875 54.5 -15.6875 C 54.5 -12.789062 53.757812 -10.132812 52.28125 -7.71875 C 50.8125 -5.300781 48.851562 -3.394531 46.40625 -2 C 45.175781 -1.332031 43.8125 -0.832031 42.3125 -0.5 C 40.8125 -0.164062 38.804688 0 36.296875 0 L 10.59375 0 L 10.59375 -58.078125 Z M 34.96875 -58.078125 "/></g></g></g></svg>